<svg xmlns="http://www.w3.org/2000/svg" version="1.1" xmlns:xlink="http://www.w3.org/1999/xlink" xmlns:svgjs="http://svgjs.com/svgjs" width="1440" height="560" preserveAspectRatio="none" viewBox="0 0 1440 560">
    <g mask="url(&quot;#SvgjsMask1041&quot;)" fill="none">
        <rect width="1440" height="560" x="0" y="0" fill="#0e2a47"></rect>
        <path d="M333.19 175.21 L488.09000000000003 287.25L518.2436841658479 123.62631583415218z" fill="#037b0b"></path>
        <path d="M595.41 309.87L586.14 301.04 592.72 290.05 583.44 281.22 590.02 270.23 580.75 261.4 587.33 250.41" stroke="#d3b714" stroke-width="1" stroke-dasharray="2, 2"></path>
        <rect width="261.12" height="261.12" clip-path="url(&quot;#SvgjsClipPath1042&quot;)" x="941.81" y="-55.58" fill="url(#SvgjsPattern1043)" transform="rotate(262.45, 1072.37, 74.98)"></rect>
        <path d="M1116.47 382.22a5.6 5.6 0 1 0-10.54-3.8 5.6 5.6 0 1 0 10.54 3.8zM1101.41 376.8a5.6 5.6 0 1 0-10.54-3.79 5.6 5.6 0 1 0 10.54 3.79zM1086.36 371.38a5.6 5.6 0 1 0-10.54-3.79 5.6 5.6 0 1 0 10.54 3.79zM1071.3 365.96a5.6 5.6 0 1 0-10.54-3.79 5.6 5.6 0 1 0 10.54 3.79zM1151.99 378a5.6 5.6 0 1 0-10.53-3.8 5.6 5.6 0 1 0 10.53 3.8zM1136.94 372.58a5.6 5.6 0 1 0-10.54-3.79 5.6 5.6 0 1 0 10.54 3.79zM1121.88 367.16a5.6 5.6 0 1 0-10.53-3.79 5.6 5.6 0 1 0 10.53 3.79zM1106.83 361.74a5.6 5.6 0 1 0-10.54-3.79 5.6 5.6 0 1 0 10.54 3.79zM1187.52 373.77a5.6 5.6 0 1 0-10.54-3.79 5.6 5.6 0 1 0 10.54 3.79zM1172.47 368.36a5.6 5.6 0 1 0-10.54-3.79 5.6 5.6 0 1 0 10.54 3.79zM1157.41 362.94a5.6 5.6 0 1 0-10.54-3.79 5.6 5.6 0 1 0 10.54 3.79zM1142.36 357.52a5.6 5.6 0 1 0-10.54-3.79 5.6 5.6 0 1 0 10.54 3.79z" stroke="#e73635" stroke-width="2.69" stroke-dasharray="3, 3"></path>
        <rect width="119.28" height="119.28" clip-path="url(&quot;#SvgjsClipPath1044&quot;)" x="18.83" y="197.17" fill="url(#SvgjsPattern1045)" transform="rotate(197.79, 78.47, 256.81)"></rect>
        <path d="M35.06 157.27L28.95 146.01 38.59 137.58 32.48 126.33 42.11 117.89 36 106.64 45.64 98.21" stroke="#037b0b" stroke-width="2.91" stroke-dasharray="3, 2"></path>
        <path d="M702.92 492.72a5.6 5.6 0 1 0-10.95-2.36 5.6 5.6 0 1 0 10.95 2.36zM687.28 489.34a5.6 5.6 0 1 0-10.95-2.35 5.6 5.6 0 1 0 10.95 2.35zM671.64 485.97a5.6 5.6 0 1 0-10.95-2.35 5.6 5.6 0 1 0 10.95 2.35zM656 482.6a5.6 5.6 0 1 0-10.95-2.35 5.6 5.6 0 1 0 10.95 2.35zM737.58 483.81a5.6 5.6 0 1 0-10.95-2.35 5.6 5.6 0 1 0 10.95 2.35zM721.93 480.44a5.6 5.6 0 1 0-10.94-2.35 5.6 5.6 0 1 0 10.94 2.35zM706.29 477.07a5.6 5.6 0 1 0-10.94-2.35 5.6 5.6 0 1 0 10.94 2.35zM690.65 473.7a5.6 5.6 0 1 0-10.95-2.36 5.6 5.6 0 1 0 10.95 2.36z" fill="#e73635"></path>
        <rect width="188.48" height="188.48" clip-path="url(&quot;#SvgjsClipPath1046&quot;)" x="320.68" y="285.04" fill="url(#SvgjsPattern1047)" transform="rotate(329.69, 414.92, 379.28)"></rect>
        <rect width="107" height="107" clip-path="url(&quot;#SvgjsClipPath1048&quot;)" x="456.91" y="-6.66" fill="url(#SvgjsPattern1049)" transform="rotate(290.77, 510.41, 46.84)"></rect>
        <path d="M1050.78 240.93a5.6 5.6 0 1 0-2.78-10.84 5.6 5.6 0 1 0 2.78 10.84zM1046.8 225.44a5.6 5.6 0 1 0-2.78-10.85 5.6 5.6 0 1 0 2.78 10.85zM1042.83 209.94a5.6 5.6 0 1 0-2.79-10.85 5.6 5.6 0 1 0 2.79 10.85zM1038.85 194.44a5.6 5.6 0 1 0-2.78-10.85 5.6 5.6 0 1 0 2.78 10.85zM1074.23 267.95a5.6 5.6 0 1 0-2.78-10.84 5.6 5.6 0 1 0 2.78 10.84zM1070.26 252.46a5.6 5.6 0 1 0-2.79-10.85 5.6 5.6 0 1 0 2.79 10.85zM1066.28 236.96a5.6 5.6 0 1 0-2.78-10.85 5.6 5.6 0 1 0 2.78 10.85zM1062.3 221.46a5.6 5.6 0 1 0-2.78-10.85 5.6 5.6 0 1 0 2.78 10.85zM1097.68 294.97a5.6 5.6 0 1 0-2.78-10.84 5.6 5.6 0 1 0 2.78 10.84zM1093.71 279.48a5.6 5.6 0 1 0-2.79-10.85 5.6 5.6 0 1 0 2.79 10.85zM1089.73 263.98a5.6 5.6 0 1 0-2.78-10.85 5.6 5.6 0 1 0 2.78 10.85zM1085.75 248.48a5.6 5.6 0 1 0-2.78-10.85 5.6 5.6 0 1 0 2.78 10.85z" fill="#e73635"></path>
        <rect width="135.2" height="135.2" clip-path="url(&quot;#SvgjsClipPath1050&quot;)" x="1264.06" y="58.26" fill="url(#SvgjsPattern1051)" transform="rotate(74.38, 1331.66, 125.86)"></rect>
        <rect width="68.2" height="68.2" clip-path="url(&quot;#SvgjsClipPath1052&quot;)" x="195.68" y="402.73" fill="url(#SvgjsPattern1053)" transform="rotate(245.63, 229.78, 436.83)"></rect>
    </g>
    <defs>
        <mask id="SvgjsMask1041">
            <rect width="1440" height="560" fill="#ffffff"></rect>
        </mask>
        <pattern x="0" y="0" width="7.68" height="7.68" patternUnits="userSpaceOnUse" id="SvgjsPattern1043">
            <path d="M0 7.68L3.84 0L7.68 7.68" stroke="#d3b714" fill="none"></path>
        </pattern>
        <clipPath id="SvgjsClipPath1042">
            <circle r="65.28" cx="1072.37" cy="74.98"></circle>
        </clipPath>
        <pattern x="0" y="0" width="119.28" height="9.94" patternUnits="userSpaceOnUse" id="SvgjsPattern1045">
            <rect width="119.28" height="4.97" x="0" y="0" fill="#037b0b"></rect>
            <rect width="119.28" height="4.97" x="0" y="4.97" fill="rgba(0, 0, 0, 0)"></rect>
        </pattern>
        <clipPath id="SvgjsClipPath1044">
            <circle r="29.82" cx="78.47" cy="256.81"></circle>
        </clipPath>
        <pattern x="0" y="0" width="188.48" height="11.78" patternUnits="userSpaceOnUse" id="SvgjsPattern1047">
            <rect width="188.48" height="5.89" x="0" y="0" fill="#d3b714"></rect>
            <rect width="188.48" height="5.89" x="0" y="5.89" fill="rgba(0, 0, 0, 0)"></rect>
        </pattern>
        <clipPath id="SvgjsClipPath1046">
            <circle r="47.12" cx="414.92" cy="379.28"></circle>
        </clipPath>
        <pattern x="0" y="0" width="10.7" height="10.7" patternUnits="userSpaceOnUse" id="SvgjsPattern1049">
            <path d="M0 10.7L5.35 0L10.7 10.7" stroke="#d3b714" fill="none"></path>
        </pattern>
        <clipPath id="SvgjsClipPath1048">
            <circle r="26.75" cx="510.41" cy="46.84"></circle>
        </clipPath>
        <pattern x="0" y="0" width="13.52" height="13.52" patternUnits="userSpaceOnUse" id="SvgjsPattern1051">
            <path d="M0 13.52L6.76 0L13.52 13.52" stroke="#037b0b" fill="none"></path>
        </pattern>
        <clipPath id="SvgjsClipPath1050">
            <circle r="33.8" cx="1331.66" cy="125.86"></circle>
        </clipPath>
        <pattern x="0" y="0" width="6.82" height="6.82" patternUnits="userSpaceOnUse" id="SvgjsPattern1053">
            <path d="M3.41 1L3.41 5.82M1 3.41L5.82 3.41" stroke="#037b0b" fill="none" stroke-width="2.09"></path>
        </pattern>
        <clipPath id="SvgjsClipPath1052">
            <circle r="17.05" cx="229.78" cy="436.83"></circle>
        </clipPath>
    </defs>
</svg>